# xmcd CD database file
#
# Track frame offsets:
#	150
#	13047
#	33367
#	53586
#	76341
#	88562
#	101465
#	120039
#	134579
#	147842
#	169571
#	183210
#
# Disc length: 2659 seconds
#
# Revision: 0
# Processed by: cddbd v1.5.2PL0 Copyright (c) Steve Scherf et al.
# Submitted via: CDex 1.51
#
DISCID=870a610c
DTITLE=Cachao - Descarga
DYEAR=2002
DGENRE=Jazz
TTITLE0=Juan Pescao
TTITLE1=El Bombin De Perucho
TTITLE2=Tres Lindas Cubanas
TTITLE3=Mambo
TTITLE4=La Floresta
TTITLE5=Tunas se Quemo
TTITLE6=Siboney
TTITLE7=Avance Juvenil
TTITLE8=La Bayamesa
TTITLE9=A La Loma De Belén
TTITLE10=El Manicero
TTITLE11=Descargas General
EXTD=YEAR: 2002
EXTT0=
EXTT1=
EXTT2=
EXTT3=
EXTT4=
EXTT5=
EXTT6=
EXTT7=
EXTT8=
EXTT9=
EXTT10=
EXTT11=
PLAYORDER=
